<svg width="75" height="12" viewBox="0 0 75 12" fill="none" xmlns="http://www.w3.org/2000/svg">
<path d="M0 0.304001H9.296V1.84H5.52V11.696H3.776V1.84H0V0.304001Z" fill="black"/>
<path d="M11.6578 2.272H10.0258V0.56H11.6578V2.272ZM11.6418 11.696H10.0417V3.44H11.6418V11.696Z" fill="black"/>
<path d="M17.1924 3.44V4.752H15.5284V9.712C15.5284 9.95733 15.5977 10.1387 15.7364 10.256C15.8857 10.3627 16.131 10.416 16.4724 10.416H17.1924V11.696C16.8404 11.728 16.515 11.744 16.2164 11.744C15.4377 11.744 14.8617 11.5947 14.4884 11.296C14.115 10.9973 13.9284 10.5173 13.9284 9.856V4.752H12.6004V3.44H13.9284V1.072H15.5284V3.44H17.1924Z" fill="black"/>
<path d="M24.8313 10.704C24.0739 11.4933 23.0873 11.888 21.8713 11.888C20.6553 11.888 19.6686 11.4933 18.9113 10.704C18.1539 9.91467 17.7753 8.86933 17.7753 7.568C17.7753 6.256 18.1539 5.20533 18.9113 4.416C19.6579 3.63733 20.6446 3.248 21.8713 3.248C23.0979 3.248 24.0846 3.63733 24.8313 4.416C25.5779 5.19467 25.9513 6.24533 25.9513 7.568C25.9513 8.88 25.5779 9.92533 24.8313 10.704ZM20.0953 9.728C20.5326 10.2507 21.1246 10.512 21.8713 10.512C22.6179 10.512 23.2046 10.2507 23.6313 9.728C24.0686 9.20533 24.2873 8.48533 24.2873 7.568C24.2873 6.65067 24.0686 5.93067 23.6313 5.408C23.2046 4.88533 22.6179 4.624 21.8713 4.624C21.1246 4.624 20.5326 4.88533 20.0953 5.408C19.6579 5.93067 19.4393 6.65067 19.4393 7.568C19.4393 8.48533 19.6579 9.20533 20.0953 9.728Z" fill="black"/>
<path d="M34.6128 11.952C33.1088 11.952 31.9354 11.6107 31.0928 10.928C30.2608 10.2453 29.8394 9.248 29.8288 7.936H31.5408C31.5728 9.64267 32.6074 10.496 34.6448 10.496C35.4874 10.496 36.1327 10.336 36.5807 10.016C37.0394 9.68533 37.2688 9.21067 37.2688 8.592C37.2688 8.09067 37.0821 7.70667 36.7088 7.44C36.3354 7.16267 35.6634 6.91733 34.6928 6.704L33.7168 6.496C32.5434 6.26133 31.6581 5.87733 31.0608 5.344C30.4634 4.81067 30.1648 4.07467 30.1648 3.136C30.1648 2.19733 30.5274 1.45067 31.2528 0.896001C31.9781 0.330667 32.9594 0.0480003 34.1968 0.0480003C35.6901 0.0480003 36.8101 0.368 37.5568 1.008C38.3141 1.648 38.7034 2.528 38.7248 3.648H37.0288C36.9754 2.912 36.7301 2.37333 36.2928 2.032C35.8661 1.68 35.1727 1.504 34.2127 1.504C33.4661 1.504 32.8954 1.64267 32.5008 1.92C32.1061 2.19733 31.9088 2.592 31.9088 3.104C31.9088 3.62667 32.0848 4.02133 32.4368 4.288C32.7888 4.576 33.4394 4.82133 34.3888 5.024L35.3808 5.232C36.6821 5.50933 37.6154 5.90933 38.1808 6.432C38.7568 6.95467 39.0448 7.65867 39.0448 8.544C39.0448 9.6 38.6501 10.432 37.8608 11.04C37.0821 11.648 35.9994 11.952 34.6128 11.952Z" fill="black"/>
<path d="M43.9118 3.44V4.752H42.2477V9.712C42.2477 9.95733 42.3171 10.1387 42.4557 10.256C42.6051 10.3627 42.8504 10.416 43.1917 10.416H43.9118V11.696C43.5598 11.728 43.2344 11.744 42.9358 11.744C42.1571 11.744 41.5811 11.5947 41.2078 11.296C40.8344 10.9973 40.6478 10.5173 40.6478 9.856V4.752H39.3198V3.44H40.6478V1.072H42.2477V3.44H43.9118Z" fill="black"/>
<path d="M50.4589 8.096V3.44H52.0589V11.696H50.5229V10.464C49.8935 11.4133 49.0295 11.888 47.9309 11.888C47.0242 11.888 46.3149 11.632 45.8029 11.12C45.2909 10.608 45.0349 9.89333 45.0349 8.976V3.44H46.6349V8.752C46.6349 9.904 47.2162 10.48 48.3789 10.48C48.9655 10.48 49.4562 10.272 49.8509 9.856C50.2562 9.42933 50.4589 8.84267 50.4589 8.096Z" fill="black"/>
<path d="M59.767 4.56V0.304001H61.367V11.696H59.831V10.48C59.2123 11.4187 58.3003 11.888 57.095 11.888C55.943 11.888 55.0257 11.4987 54.343 10.72C53.6603 9.94133 53.319 8.89067 53.319 7.568C53.319 6.24533 53.6603 5.19467 54.343 4.416C55.0257 3.63733 55.943 3.248 57.095 3.248C58.2577 3.248 59.1483 3.68533 59.767 4.56ZM54.983 7.632C54.983 8.54933 55.2017 9.25867 55.639 9.76C56.0763 10.2613 56.663 10.512 57.399 10.512C58.1563 10.512 58.7483 10.2507 59.175 9.728C59.6017 9.22667 59.815 8.50667 59.815 7.568C59.815 6.64 59.6017 5.91467 59.175 5.392C58.7483 4.88 58.1563 4.624 57.399 4.624C56.663 4.624 56.0763 4.89067 55.639 5.424C55.2017 5.95733 54.983 6.69333 54.983 7.632Z" fill="black"/>
<path d="M64.6278 2.272H62.9958V0.56H64.6278V2.272ZM64.6117 11.696H63.0118V3.44H64.6117V11.696Z" fill="black"/>
<path d="M72.9144 10.704C72.157 11.4933 71.1704 11.888 69.9544 11.888C68.7384 11.888 67.7517 11.4933 66.9944 10.704C66.237 9.91467 65.8584 8.86933 65.8584 7.568C65.8584 6.256 66.237 5.20533 66.9944 4.416C67.741 3.63733 68.7277 3.248 69.9544 3.248C71.181 3.248 72.1677 3.63733 72.9144 4.416C73.661 5.19467 74.0344 6.24533 74.0344 7.568C74.0344 8.88 73.661 9.92533 72.9144 10.704ZM68.1784 9.728C68.6157 10.2507 69.2077 10.512 69.9544 10.512C70.701 10.512 71.2877 10.2507 71.7144 9.728C72.1517 9.20533 72.3704 8.48533 72.3704 7.568C72.3704 6.65067 72.1517 5.93067 71.7144 5.408C71.2877 4.88533 70.701 4.624 69.9544 4.624C69.2077 4.624 68.6157 4.88533 68.1784 5.408C67.741 5.93067 67.5224 6.65067 67.5224 7.568C67.5224 8.48533 67.741 9.20533 68.1784 9.728Z" fill="black"/>
</svg>
